<svg xmlns="http://www.w3.org/2000/svg" xmlns:xlink="http://www.w3.org/1999/xlink" version="1.1" x="0px" y="0px" viewBox="0 0 15 22.5" enable-background="new 0 0 15 18" xml:space="preserve"><g><g><path fill="#DCE7F2" d="M7.5,15C7.776,15,8,14.775,8,14.5v-6C8,8.224,7.776,8,7.5,8S7,8.224,7,8.5v6C7,14.775,7.224,15,7.5,15z M10.5,15    c0.275,0,0.5-0.225,0.5-0.5v-6C11,8.224,10.775,8,10.5,8S10,8.224,10,8.5v6C10,14.775,10.225,15,10.5,15z M14,2h-4V1    c0-0.552-0.447-1-1-1H6C5.447,0,5,0.448,5,1v1H1C0.447,2,0,2.448,0,3v3h1v10c0,1.105,0.896,2,2,2h9c1.104,0,2-0.895,2-2V6h1V3    C15,2.448,14.553,2,14,2z M6,1.5C6,1.224,6.224,1,6.5,1h2C8.775,1,9,1.224,9,1.5V2H6V1.5z M13,16c0,0.553-0.447,1-1,1H3    c-0.553,0-1-0.447-1-1V6h11V16z M14,5H1V3.5C1,3.224,1.224,3,1.5,3h12C13.775,3,14,3.224,14,3.5V5z M4.5,15    C4.776,15,5,14.775,5,14.5v-6C5,8.224,4.776,8,4.5,8S4,8.224,4,8.5v6C4,14.775,4.224,15,4.5,15z"/></g></g></svg>