<?xml version="1.0" encoding="utf-8"?>
<!-- Generator: Adobe Illustrator 16.0.0, SVG Export Plug-In . SVG Version: 6.00 Build 0)  -->
<!DOCTYPE svg PUBLIC "-//W3C//DTD SVG 1.1//EN" "http://www.w3.org/Graphics/SVG/1.1/DTD/svg11.dtd">
<svg version="1.1" id="Layer_1" xmlns="http://www.w3.org/2000/svg" xmlns:xlink="http://www.w3.org/1999/xlink" x="0px" y="0px"
	 width="49.06px" height="54.05px" viewBox="0 0 49.06 54.05" enable-background="new 0 0 49.06 54.05" xml:space="preserve">
<g>
	<defs>
		<path id="SVGID_1_" d="M24.53,44.309l-6.746,3.589c-6.338,3.372-10.464,0.376-9.215-6.695l1.328-7.525l-5.498-5.307
			c-5.165-4.985-3.591-9.835,3.52-10.833l7.568-1.062l3.348-6.869c3.145-6.452,8.244-6.454,11.391,0l3.348,6.869l7.567,1.062
			c7.109,0.998,8.687,5.847,3.521,10.833l-5.498,5.307l1.328,7.525c1.248,7.069-2.876,10.067-9.215,6.695L24.53,44.309z"/>
	</defs>
	<clipPath id="SVGID_2_">
		<use xlink:href="#SVGID_1_"  overflow="visible"/>
	</clipPath>
	<g clip-path="url(#SVGID_2_)">
		<rect x="-3.641" y="-0.233" fill="#F6D906" width="56.342" height="54.516"/>
	</g>
</g>
<g>
</g>
<g>
</g>
<g>
</g>
<g>
</g>
<g>
</g>
<g>
</g>
<g>
</g>
<g>
</g>
<g>
</g>
<g>
</g>
<g>
</g>
<g>
</g>
<g>
</g>
<g>
</g>
<g>
</g>
</svg>
